<svg width="32.000000" height="29.000000" viewBox="0 0 32 29" fill="none" xmlns="http://www.w3.org/2000/svg" xmlns:xlink="http://www.w3.org/1999/xlink">
	<desc>
			Created with Pixso.
	</desc>
	<defs>
		<filter id="filter_2_476_dd" x="-0.986328" y="-0.608398" width="32.986328" height="29.608398" filterUnits="userSpaceOnUse" color-interpolation-filters="sRGB">
			<feFlood flood-opacity="0" result="BackgroundImageFix"/>
			<feColorMatrix in="SourceAlpha" type="matrix" values="0 0 0 0 0 0 0 0 0 0 0 0 0 0 0 0 0 0 127 0" result="hardAlpha"/>
			<feOffset dx="0" dy="4"/>
			<feGaussianBlur stdDeviation="1.33333"/>
			<feComposite in2="hardAlpha" operator="out" k2="-1" k3="1"/>
			<feColorMatrix type="matrix" values="0 0 0 0 0 0 0 0 0 0 0 0 0 0 0 0 0 0 0.25 0"/>
			<feBlend mode="normal" in2="BackgroundImageFix" result="effect_dropShadow_1"/>
			<feBlend mode="normal" in="SourceGraphic" in2="effect_dropShadow_1" result="shape"/>
		</filter>
		<clipPath id="clip2_6906">
			<rect id="Icons-dribbble" width="14.575342" height="12.604972" transform="translate(8.219238 3.893555)" fill="white" fill-opacity="0"/>
		</clipPath>
	</defs>
	<g filter="url(#filter_2_476_dd)">
		<ellipse id="Ellipse 9" cx="15.506836" cy="10.195801" rx="12.493151" ry="10.804261" fill="#FFB400" fill-opacity="1.000000"/>
		<rect id="Icons-dribbble" width="14.575342" height="12.604972" transform="translate(8.219238 3.893555)" fill="#FFFFFF" fill-opacity="0"/>
		<rect id="Icons-dribbble" width="14.575342" height="12.604972" transform="translate(8.219238 3.893555)" fill="#FFFFFF" fill-opacity="0"/>
		<rect id="Icons-dribbble" width="14.575342" height="12.604972" transform="translate(8.219238 3.893555)" fill="#FFFFFF" fill-opacity="0"/>
		<g clip-path="url(#clip2_6906)">
			<path id="Vector" d="M20.35 9.97C20.3 9.14 19.97 8.34 19.4 7.68C19.22 7.84 19.04 8 18.84 8.14C18.23 8.57 17.55 8.93 16.83 9.19C16.93 9.38 17.02 9.56 17.1 9.72L17.1 9.73C17.13 9.77 17.15 9.82 17.17 9.87C18.09 9.78 19.06 9.81 20 9.92C20.12 9.93 20.24 9.95 20.35 9.97ZM14.65 6.05C15.25 6.77 15.79 7.52 16.29 8.3C17.03 8.04 17.65 7.72 18.14 7.37C18.31 7.25 18.47 7.11 18.62 6.97C17.75 6.34 16.64 5.99 15.5 5.99C15.22 5.99 14.93 6.01 14.65 6.05L14.65 6.05ZM10.8 9.14C11.21 9.13 11.62 9.11 12.04 9.07C13.03 9 14.02 8.85 14.99 8.64C14.48 7.88 13.93 7.14 13.35 6.42C12.72 6.69 12.17 7.07 11.73 7.54C11.29 8.01 10.97 8.56 10.8 9.14ZM11.73 12.84C11.96 12.54 12.27 12.2 12.68 11.84C13.57 11.06 14.61 10.45 15.81 10.11L15.85 10.1C15.75 9.91 15.66 9.74 15.56 9.58C14.45 9.86 13.27 10.04 12.1 10.13C11.53 10.17 11.02 10.19 10.64 10.19C10.64 11.16 11.02 12.09 11.73 12.84L11.73 12.84ZM17.33 14.09C17.09 13.06 16.76 12.06 16.34 11.09C15.12 11.47 14.15 12.03 13.4 12.69C13.1 12.96 12.83 13.25 12.6 13.56C13.44 14.1 14.46 14.39 15.5 14.39C16.13 14.39 16.75 14.29 17.33 14.09L17.33 14.09ZM18.46 13.52C19.41 12.89 20.06 11.98 20.28 10.96C20.07 10.92 19.81 10.87 19.52 10.84C18.88 10.76 18.23 10.75 17.59 10.82C17.95 11.7 18.24 12.61 18.46 13.52L18.46 13.52ZM15.5 15.44C12.15 15.44 9.43 13.09 9.43 10.19C9.43 7.29 12.15 4.94 15.5 4.94C18.86 4.94 21.57 7.29 21.57 10.19C21.57 13.09 18.86 15.44 15.5 15.44Z" fill="#2B2B2B" fill-opacity="1.000000" fill-rule="nonzero"/>
		</g>
	</g>
</svg>
