<svg width="76" height="76" viewBox="0 0 76 76" fill="none" xmlns="http://www.w3.org/2000/svg">
<g clip-path="url(#clip0_2_621)">
<path d="M35.3281 55.1431C34.7131 55.1431 34.2148 55.6415 34.2148 56.2563C34.2148 56.8712 34.7131 57.3696 35.3281 57.3696H40.6719C41.2869 57.3696 41.7852 56.8712 41.7852 56.2563C41.7852 55.6415 41.2869 55.1431 40.6719 55.1431H35.3281Z" fill="#FFB400"/>
<path d="M13.3594 37.8564H20.7183C21.1678 39.0263 22.3002 39.8604 23.6264 39.8604C24.9525 39.8604 26.0849 39.0263 26.5344 37.8564H28.0053C28.6202 37.8564 29.1185 37.358 29.1185 36.7432C29.1185 36.1283 28.6202 35.6299 28.0053 35.6299H26.5344C26.0849 34.46 24.9525 33.626 23.6264 33.626C22.3002 33.626 21.1678 34.46 20.7183 35.6299H13.3594C12.7444 35.6299 12.2461 36.1283 12.2461 36.7432C12.2461 37.358 12.7444 37.8564 13.3594 37.8564ZM23.6264 35.8525C24.1175 35.8525 24.517 36.252 24.517 36.7432C24.517 37.2343 24.1175 37.6338 23.6264 37.6338C23.1352 37.6338 22.7357 37.2343 22.7357 36.7432C22.7357 36.252 23.1352 35.8525 23.6264 35.8525Z" fill="#FFB400"/>
<path d="M13.3594 31.4736H14.7808C15.2303 32.6435 16.3627 33.4775 17.6889 33.4775C19.015 33.4775 20.1474 32.6435 20.5969 31.4736H28.0053C28.6202 31.4736 29.1185 30.9752 29.1185 30.3604C29.1185 29.7455 28.6202 29.2471 28.0053 29.2471H20.5969C20.1474 28.0772 19.015 27.2432 17.6889 27.2432C16.3627 27.2432 15.2303 28.0772 14.7808 29.2471H13.3594C12.7444 29.2471 12.2461 29.7455 12.2461 30.3604C12.2461 30.9752 12.7444 31.4736 13.3594 31.4736ZM17.6889 29.4697C18.18 29.4697 18.5795 29.8692 18.5795 30.3604C18.5795 30.8515 18.18 31.251 17.6889 31.251C17.1977 31.251 16.7982 30.8515 16.7982 30.3604C16.7982 29.8692 17.1977 29.4697 17.6889 29.4697Z" fill="#FFB400"/>
<path d="M28.228 21.2314C28.8429 21.2314 29.3413 20.733 29.3413 20.1182C29.3413 19.5033 28.8429 19.0049 28.228 19.0049C27.6132 19.0049 27.1147 19.5033 27.1147 20.1182C27.1147 20.733 27.6132 21.2314 28.228 21.2314Z" fill="#FFB400"/>
<path d="M25.1602 21.2314C25.775 21.2314 26.2734 20.733 26.2734 20.1182C26.2734 19.5033 25.775 19.0049 25.1602 19.0049C24.5453 19.0049 24.0469 19.5033 24.0469 20.1182C24.0469 20.733 24.5453 21.2314 25.1602 21.2314Z" fill="#FFB400"/>
<path d="M22.0923 21.2314C22.7071 21.2314 23.2056 20.733 23.2056 20.1182C23.2056 19.5033 22.7071 19.0049 22.0923 19.0049C21.4774 19.0049 20.979 19.5033 20.979 20.1182C20.979 20.733 21.4774 21.2314 22.0923 21.2314Z" fill="#FFB400"/>
<path d="M72.6602 7.49354H72.2432L72.5542 7.18256C73.4856 6.25112 73.4856 4.73542 72.5542 3.80398L70.1171 1.36693C69.1857 0.435633 67.6701 0.435633 66.7385 1.36693L60.6124 7.49339H3.33984C1.49833 7.49339 0 8.99157 0 10.8332V57.0662C0 59.3171 1.83113 61.1482 4.08203 61.1482H30.4512V69.0236H25.0859C23.6537 69.0236 22.4883 70.1889 22.4883 71.6212V72.7336C22.4883 74.1659 23.6537 75.3313 25.0859 75.3313H50.9141C52.3463 75.3313 53.5117 74.1659 53.5117 72.7336V71.6212C53.5117 70.1889 52.3463 69.0236 50.9141 69.0236H45.5488V61.1482H57.4453C58.0603 61.1482 58.5586 60.6497 58.5586 60.0349C58.5586 59.4201 58.0603 58.9216 57.4453 58.9216H4.08203C3.05885 58.9216 2.22656 58.0894 2.22656 57.0662V53.7709H73.7734V57.0662C73.7734 58.0894 72.9411 58.9216 71.918 58.9216H62.6406C62.0257 58.9216 61.5273 59.4201 61.5273 60.0349C61.5273 60.6497 62.0257 61.1482 62.6406 61.1482H71.918C74.1689 61.1482 76 59.3171 76 57.0662V10.8334C76 8.99187 74.5017 7.49354 72.6602 7.49354ZM50.9141 71.2503C51.1188 71.2503 51.2852 71.4168 51.2852 71.6214V72.7337C51.2852 72.9383 51.1188 73.1048 50.9141 73.1048H25.0859C24.8812 73.1048 24.7148 72.9383 24.7148 72.7337V71.6214C24.7148 71.4168 24.8812 71.2503 25.0859 71.2503H50.9141ZM32.6778 61.1485H43.3224V69.0238H32.6778V61.1485ZM68.313 2.94155C68.3765 2.87817 68.4796 2.87832 68.5428 2.94155L70.9797 5.37845C71.0431 5.44184 71.0431 5.545 70.9797 5.60823L68.6544 7.93351L65.9877 5.26683L68.313 2.94155ZM64.4133 6.84131L67.0798 9.50799L66.3033 10.2845L63.6368 7.61778L64.4133 6.84131ZM62.0623 9.19226L64.729 11.8589L51.555 25.0329L48.8883 22.3662L62.0623 9.19226ZM60.4141 19.3705C61.9283 19.3705 63.1602 20.6024 63.1602 22.1166C63.1602 23.6308 61.9283 24.8627 60.4141 24.8627C58.8999 24.8627 57.668 23.6308 57.668 22.1166C57.668 22.0989 57.6703 22.0818 57.6706 22.0642L60.3621 19.3731C60.3795 19.3728 60.3965 19.3705 60.4141 19.3705ZM49.6218 26.2486L46.3269 27.5944L47.6726 24.2995L49.6218 26.2486ZM73.7734 51.5446H2.22656V10.8334C2.22656 10.2196 2.72591 9.7201 3.33984 9.7201H58.386L56.6884 11.4176H18.8516C18.2366 11.4176 17.7383 11.9161 17.7383 12.5309C17.7383 13.1457 18.2366 13.6442 18.8516 13.6442H54.462L46.6095 21.4971C46.3876 21.721 46.2141 21.9822 46.0946 22.2747L43.6078 28.363C43.3797 28.9221 43.5082 29.5594 43.9353 29.9863C44.2219 30.2729 44.6031 30.4249 44.9919 30.4249C45.1824 30.4249 45.3747 30.3884 45.5586 30.3134L51.6468 27.8268C51.9309 27.7107 52.185 27.5427 52.4047 27.3297L55.7914 23.9434C56.521 25.7839 58.3171 27.0894 60.4142 27.0894C63.1562 27.0894 65.3869 24.8586 65.3869 22.1167C65.3869 20.0199 64.0817 18.2239 62.2415 17.4942L66.0918 13.6443H69.8493V47.6206H69.2593L65.2248 40.6327C64.9175 40.1001 64.2362 39.9176 63.704 40.2252C63.1716 40.5326 62.9892 41.2135 63.2966 41.7459L66.6884 47.6206H51.1366L49.4686 44.7316L57.2445 31.2634L60.6988 37.2467C61.0063 37.7791 61.6872 37.9617 62.2195 37.6541C62.752 37.3467 62.9344 36.6658 62.627 36.1334L58.9417 29.7504C58.5874 29.1368 57.953 28.7704 57.2443 28.7704C56.5357 28.7704 55.9011 29.1368 55.5468 29.7504L48.1828 42.5052L38.7342 26.1398C38.3799 25.5262 37.7454 25.1598 37.0366 25.1598C36.3281 25.1598 35.6936 25.5262 35.3393 26.1398L32.829 30.4877V18.5544C32.829 17.1221 31.6636 15.9567 30.2314 15.9567H11.1328C9.70054 15.9567 8.53516 17.1221 8.53516 18.5544V42.8981C8.53516 43.9213 9.36744 44.7536 10.3906 44.7536H24.593L22.9376 47.6208H6.1508V13.6442H13.6562C14.2712 13.6442 14.7695 13.1457 14.7695 12.5309C14.7695 11.9161 14.2712 11.4176 13.6562 11.4176H5.77971C4.75653 11.4176 3.92424 12.2499 3.92424 13.2731V47.9916C3.92424 49.0148 4.75653 49.8471 5.77971 49.8471H70.2204C71.2436 49.8471 72.0759 49.0148 72.0759 47.9916V13.2731C72.0759 12.2499 71.2436 11.4176 70.2204 11.4176H68.3187L70.0165 9.7201H72.6602C73.2741 9.7201 73.7734 10.2196 73.7734 10.8334V51.5446ZM30.6029 24.7199V42.5267H10.7617V24.7199H30.6029ZM10.7617 22.4933V18.5541C10.7617 18.3495 10.9281 18.183 11.1328 18.183H30.2318C30.4365 18.183 30.6029 18.3495 30.6029 18.5541V22.4933H10.7617ZM27.1641 44.7533H30.974C31.9972 44.7533 32.8295 43.921 32.8295 42.8978V40.5396C33.1079 40.6732 33.418 40.7455 33.7428 40.7455C34.5028 40.7455 35.1833 40.3524 35.5631 39.6944L37.4578 36.4129C37.5151 36.3137 37.6026 36.2928 37.6657 36.2928C37.7291 36.2928 37.8167 36.3137 37.8738 36.4129L39.0419 38.4359C39.4219 39.0943 40.1025 39.4872 40.8626 39.4872C41.6226 39.4872 42.3032 39.0942 42.6831 38.4361L42.9731 37.9338L48.5656 47.6203H25.5087L27.1641 44.7533ZM32.8295 36.8129V34.9405L37.0372 27.6527L41.6875 35.7072L40.8625 37.1361L39.802 35.2994C39.3561 34.5271 38.5575 34.0661 37.6656 34.0661C36.7738 34.0661 35.9752 34.5271 35.5293 35.2994L33.7424 38.3944L32.8295 36.8129Z" fill="#FFB400"/>
</g>
<defs>
<clipPath id="clip0_2_621">
<rect width="76" height="76" fill="white"/>
</clipPath>
</defs>
</svg>
