<svg width="25.000000" height="21.000000" viewBox="0 0 25 21" fill="none" xmlns="http://www.w3.org/2000/svg" xmlns:xlink="http://www.w3.org/1999/xlink">
	<desc>
			Created with Pixso.
	</desc>
	<defs>
		<clipPath id="clip2_6946">
			<rect id="Icons-instagram" width="14.575342" height="12.604972" transform="translate(4.808105 3.893555)" fill="white" fill-opacity="0"/>
		</clipPath>
	</defs>
	<ellipse id="Ellipse 9" cx="12.095703" cy="10.195801" rx="12.493151" ry="10.804261" fill="#FFB400" fill-opacity="1.000000"/>
	<rect id="Icons-instagram" width="14.575342" height="12.604972" transform="translate(4.808105 3.893555)" fill="#FFFFFF" fill-opacity="0"/>
	<rect id="Icons-instagram" width="14.575342" height="12.604972" transform="translate(4.808105 3.893555)" fill="#FFFFFF" fill-opacity="0"/>
	<rect id="Icons-instagram" width="14.575342" height="12.604972" transform="translate(4.808105 3.893555)" fill="#FFFFFF" fill-opacity="0"/>
	<g clip-path="url(#clip2_6946)">
		<path id="Vector" d="M12.09 4.94C13.74 4.94 13.95 4.94 14.59 4.97C15.24 5 15.68 5.08 16.07 5.22C16.47 5.35 16.81 5.53 17.14 5.82C17.45 6.08 17.69 6.4 17.85 6.75C18 7.09 18.1 7.47 18.13 8.03C18.16 8.59 18.16 8.76 18.16 10.19C18.16 11.62 18.16 11.8 18.13 12.36C18.1 12.92 18 13.3 17.85 13.63C17.69 13.98 17.45 14.3 17.14 14.56C16.84 14.83 16.47 15.04 16.07 15.17C15.68 15.3 15.24 15.39 14.59 15.41C13.95 15.44 13.74 15.44 12.09 15.44C10.44 15.44 10.24 15.44 9.59 15.41C8.94 15.39 8.5 15.3 8.11 15.17C7.71 15.04 7.34 14.83 7.04 14.56C6.73 14.3 6.49 13.98 6.34 13.63C6.19 13.3 6.08 12.92 6.05 12.36C6.03 11.8 6.02 11.62 6.02 10.19C6.02 8.76 6.02 8.59 6.05 8.03C6.08 7.47 6.19 7.09 6.34 6.75C6.49 6.4 6.73 6.08 7.04 5.82C7.34 5.55 7.71 5.35 8.11 5.22C8.5 5.08 8.94 5 9.59 4.97C10.24 4.95 10.44 4.94 12.09 4.94ZM12.09 7.57C11.29 7.57 10.51 7.84 9.94 8.33C9.37 8.83 9.05 9.5 9.05 10.19C9.05 10.89 9.37 11.56 9.94 12.05C10.51 12.54 11.29 12.82 12.09 12.82C12.9 12.82 13.67 12.54 14.24 12.05C14.81 11.56 15.13 10.89 15.13 10.19C15.13 9.5 14.81 8.83 14.24 8.33C13.67 7.84 12.9 7.57 12.09 7.57ZM16.04 7.43C16.04 7.26 15.96 7.09 15.82 6.97C15.67 6.85 15.48 6.78 15.28 6.78C15.08 6.78 14.89 6.85 14.74 6.97C14.6 7.09 14.52 7.26 14.52 7.43C14.52 7.61 14.6 7.78 14.74 7.9C14.89 8.02 15.08 8.09 15.28 8.09C15.48 8.09 15.67 8.02 15.82 7.9C15.96 7.78 16.04 7.61 16.04 7.43ZM12.09 8.62C12.57 8.62 13.04 8.78 13.38 9.08C13.72 9.37 13.91 9.77 13.91 10.19C13.91 10.61 13.72 11.01 13.38 11.31C13.04 11.6 12.57 11.77 12.09 11.77C11.61 11.77 11.14 11.6 10.8 11.31C10.46 11.01 10.27 10.61 10.27 10.19C10.27 9.77 10.46 9.37 10.8 9.08C11.14 8.78 11.61 8.62 12.09 8.62Z" fill="#2B2B2B" fill-opacity="1.000000" fill-rule="nonzero"/>
	</g>
</svg>
