<svg width="25.000000" height="21.000000" viewBox="0 0 25 21" fill="none" xmlns="http://www.w3.org/2000/svg" xmlns:xlink="http://www.w3.org/1999/xlink">
	<desc>
			Created with Pixso.
	</desc>
	<defs>
		<clipPath id="clip2_6926">
			<rect id="Icons-linkedin" width="14.575342" height="12.604972" transform="translate(5.013672 3.893555)" fill="white" fill-opacity="0"/>
		</clipPath>
	</defs>
	<ellipse id="Ellipse 18" cx="12.301270" cy="10.195801" rx="12.493151" ry="10.804261" fill="#FFB400" fill-opacity="1.000000"/>
	<rect id="Icons-linkedin" width="14.575342" height="12.604972" transform="translate(5.013672 3.893555)" fill="#FFFFFF" fill-opacity="0"/>
	<rect id="Icons-linkedin" width="14.575342" height="12.604972" transform="translate(5.013672 3.893555)" fill="#FFFFFF" fill-opacity="0"/>
	<rect id="Icons-linkedin" width="14.575342" height="12.604972" transform="translate(5.013672 3.893555)" fill="#FFFFFF" fill-opacity="0"/>
	<g clip-path="url(#clip2_6926)">
		<path id="Vector" d="M9.22 6.51C9.22 6.79 9.1 7.06 8.87 7.26C8.64 7.45 8.33 7.56 8.01 7.56C7.69 7.56 7.38 7.45 7.15 7.26C6.92 7.06 6.79 6.79 6.79 6.51C6.79 6.24 6.92 5.97 7.15 5.77C7.38 5.57 7.69 5.46 8.01 5.46C8.33 5.46 8.64 5.57 8.87 5.77C9.1 5.97 9.22 6.24 9.22 6.51ZM9.26 8.34L6.83 8.34L6.83 14.92L9.26 14.92L9.26 8.34ZM13.1 8.34L10.68 8.34L10.68 14.92L13.07 14.92L13.07 11.47C13.07 9.55 15.97 9.37 15.97 11.47L15.97 14.92L18.37 14.92L18.37 10.75C18.37 7.51 14.08 7.63 13.07 9.22L13.1 8.34Z" fill="#2B2B2B" fill-opacity="1.000000" fill-rule="nonzero"/>
	</g>
</svg>
