<svg width="25.000000" height="21.000000" viewBox="0 0 25 21" fill="none" xmlns="http://www.w3.org/2000/svg" xmlns:xlink="http://www.w3.org/1999/xlink">
	<desc>
			Created with Pixso.
	</desc>
	<defs>
		<clipPath id="clip2_6936">
			<rect id="Icons-twitter" width="14.575342" height="12.604972" transform="translate(4.411133 3.893555)" fill="white" fill-opacity="0"/>
		</clipPath>
	</defs>
	<ellipse id="Ellipse 9" cx="11.698730" cy="10.195801" rx="12.493151" ry="10.804261" fill="#FFB400" fill-opacity="1.000000"/>
	<rect id="Icons-twitter" width="14.575342" height="12.604972" transform="translate(4.411133 3.893555)" fill="#FFFFFF" fill-opacity="0"/>
	<rect id="Icons-twitter" width="14.575342" height="12.604972" transform="translate(4.411133 3.893555)" fill="#FFFFFF" fill-opacity="0"/>
	<rect id="Icons-twitter" width="14.575342" height="12.604972" transform="translate(4.411133 3.893555)" fill="#FFFFFF" fill-opacity="0"/>
	<g clip-path="url(#clip2_6936)">
		<path id="Vector" d="M17.87 6.86C17.4 7.04 16.91 7.15 16.41 7.2C16.94 6.93 17.33 6.5 17.52 5.99C17.03 6.25 16.48 6.43 15.91 6.52C15.53 6.17 15.02 5.93 14.47 5.86C13.92 5.78 13.35 5.86 12.86 6.09C12.36 6.31 11.97 6.68 11.74 7.12C11.51 7.56 11.46 8.05 11.58 8.53C10.57 8.48 9.59 8.26 8.68 7.86C7.78 7.46 6.99 6.91 6.35 6.23C6.12 6.57 6 6.95 6 7.34C6 8.1 6.45 8.77 7.13 9.16C6.73 9.15 6.34 9.06 5.98 8.89L5.98 8.92C5.98 9.42 6.19 9.91 6.56 10.31C6.93 10.7 7.45 10.97 8.02 11.07C7.65 11.16 7.25 11.17 6.87 11.11C7.04 11.54 7.35 11.93 7.78 12.2C8.2 12.47 8.72 12.62 9.25 12.63C8.72 12.99 8.12 13.26 7.47 13.41C6.83 13.57 6.15 13.61 5.49 13.54C6.65 14.19 8 14.53 9.38 14.53C14.05 14.53 16.61 11.18 16.61 8.28C16.61 8.19 16.6 8.09 16.6 8C17.1 7.69 17.53 7.3 17.87 6.86L17.87 6.86Z" fill="#2B2B2B" fill-opacity="1.000000" fill-rule="nonzero"/>
	</g>
</svg>
