<svg width="25.000000" height="21.000000" viewBox="0 0 25 21" fill="none" xmlns="http://www.w3.org/2000/svg" xmlns:xlink="http://www.w3.org/1999/xlink">
	<desc>
			Created with Pixso.
	</desc>
	<defs>
		<clipPath id="clip2_6916">
			<rect id="Icons-Youtube" width="14.575342" height="12.604972" transform="translate(4.616211 3.893555)" fill="white" fill-opacity="0"/>
		</clipPath>
	</defs>
	<ellipse id="Ellipse 9" cx="11.904297" cy="10.195801" rx="12.493151" ry="10.804261" fill="#FFB400" fill-opacity="1.000000"/>
	<rect id="Icons-Youtube" width="14.575342" height="12.604972" transform="translate(4.616211 3.893555)" fill="#FFFFFF" fill-opacity="0"/>
	<rect id="Icons-Youtube" width="14.575342" height="12.604972" transform="translate(4.616211 3.893555)" fill="#FFFFFF" fill-opacity="0"/>
	<rect id="Icons-Youtube" width="14.575342" height="12.604972" transform="translate(4.616211 3.893555)" fill="#FFFFFF" fill-opacity="0"/>
	<g clip-path="url(#clip2_6916)">
		<path id="Vector" d="M17.69 7.3C17.97 8.24 17.97 10.19 17.97 10.19C17.97 10.19 17.97 12.14 17.69 13.08C17.54 13.6 17.09 14.01 16.52 14.14C15.48 14.39 11.9 14.39 11.9 14.39C11.9 14.39 8.32 14.39 7.28 14.14C6.71 14 6.26 13.6 6.1 13.08C5.83 12.14 5.83 10.19 5.83 10.19C5.83 10.19 5.83 8.24 6.1 7.3C6.26 6.78 6.71 6.38 7.28 6.24C8.32 5.99 11.9 5.99 11.9 5.99C11.9 5.99 15.48 5.99 16.52 6.24C17.09 6.38 17.54 6.79 17.69 7.3ZM10.68 12.03L14.33 10.19L10.68 8.35L10.68 12.03Z" fill="#2B2B2B" fill-opacity="1.000000" fill-rule="nonzero"/>
	</g>
</svg>
